<svg id="Layer_1" data-name="Layer 1" xmlns="http://www.w3.org/2000/svg" xmlns:xlink="http://www.w3.org/1999/xlink" viewBox="0 0 50 50"><defs><style>.cls-1{fill:#58595b;}.cls-2{fill:url(#linear-gradient);}</style><linearGradient id="linear-gradient" x1="13.16" y1="44.29" x2="40.86" y2="-3.66" gradientUnits="userSpaceOnUse"><stop offset="0" stop-color="#0a3859"/><stop offset="1" stop-color="#2786c8"/></linearGradient></defs><title>akirix-logo</title><path class="cls-1" d="M12.69,43.07h4.74V33.79s-4.75,2.47-4.75,4.64Z"/><path class="cls-1" d="M27.54,29.81,39.62,43.07h6.06L32,28C30.5,28.68,29,29.24,27.54,29.81Z"/><path class="cls-1" d="M12.69,25.07V14.63H17.4v8.64S14.92,24.07,12.69,25.07Z"/><path class="cls-2" d="M48.47,7.69a12.73,12.73,0,0,0-.27-2.55c-.08-.45-.19-.92-.32-1.4h0A8.34,8.34,0,0,0,46.48.83,21.68,21.68,0,0,1,46.68,4a16.39,16.39,0,0,1-5.91,12.14l-.3.26-.22.18A18.9,18.9,0,0,1,36.07,19c-7,3.14-34.53,7.5-34.53,18.23,0,0,0,.06,0,.08s0,0,0,.06,0,.24,0,.36,0,.22,0,.33c.57,11.05,14.62,11.06,14.62,11.06a7.26,7.26,0,0,0,3.11-.6c-9.62-2.06-9.59-9.8-9.59-9.8a3.83,3.83,0,0,1,.13-1v0C11.68,31.13,31,27.88,39.1,22.93c8.52-5.2,9.37-12.37,9.37-15.1V7.69Z"/></svg>