<svg id="Layer_1" data-name="Layer 1" xmlns="http://www.w3.org/2000/svg" viewBox="0 0 50 50"><defs><style>.cls-1{fill:#58595b;}</style></defs><title>ICON-LIBRARY</title><path class="cls-1" d="M8.69,21A25.43,25.43,0,0,1,11,13.8a22.47,22.47,0,0,1,4.45-6.2,21.14,21.14,0,0,1,6.5-4.35,20.91,20.91,0,0,1,8.41-1.62A19.23,19.23,0,0,1,40.88,4.41a17,17,0,0,1,6.46,7.27L43.77,13.9a13.66,13.66,0,0,0-2.7-3.83,15,15,0,0,0-3.41-2.53,14.47,14.47,0,0,0-3.77-1.4,18,18,0,0,0-3.83-.42A15.7,15.7,0,0,0,23.64,7a16.27,16.27,0,0,0-5,3.38,18.24,18.24,0,0,0-3.48,4.87A21,21,0,0,0,13.31,21H35.26l-1.17,2.79H13v1.1a22.1,22.1,0,0,0,.2,2.92H32.92l-1.24,2.79H13.76A19.22,19.22,0,0,0,16.13,36a19.71,19.71,0,0,0,3.74,4.35,16.51,16.51,0,0,0,4.77,2.89,15.16,15.16,0,0,0,5.62,1,17.2,17.2,0,0,0,4-.49,15.45,15.45,0,0,0,4-1.56,16.59,16.59,0,0,0,3.54-2.66,13.68,13.68,0,0,0,2.73-3.86l3.77,1.95a14.15,14.15,0,0,1-3.12,4.58,20.52,20.52,0,0,1-4.48,3.35,22.29,22.29,0,0,1-5.23,2.08,21.6,21.6,0,0,1-5.42.71,18.5,18.5,0,0,1-7.37-1.46,21.89,21.89,0,0,1-6.1-3.9,23.62,23.62,0,0,1-4.58-5.65,26.09,26.09,0,0,1-2.8-6.79H1.75l1.17-2.79H8.63a25.21,25.21,0,0,1-.2-3.18v-.85H3.63L4.8,21Z"/></svg>