<svg id="Layer_1" data-name="Layer 1" xmlns="http://www.w3.org/2000/svg" viewBox="0 0 50 50"><defs><style>.cls-1{fill:#58595b;}</style></defs><title>ICON-LIBRARY</title><path class="cls-1" d="M11.58,23.54h6.24q-.73-1.39-1.53-2.76T14.84,18a19.82,19.82,0,0,1-1.1-2.86,11.07,11.07,0,0,1,.5-7.51,11,11,0,0,1,2.6-3.59,12.82,12.82,0,0,1,3.82-2.42,12.1,12.1,0,0,1,4.69-.9,13.42,13.42,0,0,1,6.81,1.86,14.64,14.64,0,0,1,5.22,5.12L34.7,10.52a12.16,12.16,0,0,0-4.15-4.38A10,10,0,0,0,25.2,4.54a7.76,7.76,0,0,0-3,.6A7.35,7.35,0,0,0,19.72,6.8a7.92,7.92,0,0,0-2.22,5.58A8.56,8.56,0,0,0,18,15.2a23.25,23.25,0,0,0,1.13,2.72c.44.91.93,1.82,1.46,2.72s1,1.87,1.52,2.89H33.9v3.59H23.41a15.3,15.3,0,0,1,.54,4,14.32,14.32,0,0,1-1.53,6.41,31.79,31.79,0,0,1-5.31,7.14,19.86,19.86,0,0,1,4.85-.6,15.8,15.8,0,0,1,2.59.2l2.32.4,2.23.4a12.56,12.56,0,0,0,2.29.2A12.94,12.94,0,0,0,34.1,45a30,30,0,0,0,3.18-.89l1.13,3.45a16.4,16.4,0,0,1-7.24,1.73A16.59,16.59,0,0,1,28.33,49c-.89-.16-1.77-.33-2.66-.53s-1.78-.39-2.69-.56a15.18,15.18,0,0,0-2.89-.26,23.57,23.57,0,0,0-3.49.3,25.43,25.43,0,0,0-3.69.83l-1.19-3.32Q14,43.2,15.57,41.31a25.28,25.28,0,0,0,2.56-3.55,13.65,13.65,0,0,0,1.39-3.22A11.62,11.62,0,0,0,20,31.38a14.5,14.5,0,0,0-.16-2.19,13,13,0,0,0-.5-2.06h-7.7Z"/></svg>