<svg id="Layer_1" data-name="Layer 1" xmlns="http://www.w3.org/2000/svg" viewBox="0 0 50 50"><defs><style>.cls-1{fill:#58595b;}</style></defs><title>ICON-LIBRARY</title><path class="cls-1" d="M37.62,13.94a11.79,11.79,0,0,0-4-2.8A15.18,15.18,0,0,0,27.9,9.93V24a.6.6,0,0,1,.18,0,.57.57,0,0,0,.18,0,50.87,50.87,0,0,1,5.41,1.43,15.56,15.56,0,0,1,4.09,2,8.24,8.24,0,0,1,2.59,2.88,9,9,0,0,1,.9,4.22,9.59,9.59,0,0,1-1,4.44,8.68,8.68,0,0,1-2.72,3.14A12.63,12.63,0,0,1,33.42,44a22.2,22.2,0,0,1-5.25.69v5.12h-2V44.67A21.71,21.71,0,0,1,12.7,39.29l1.85-3a15.33,15.33,0,0,0,4.94,3.43,19.52,19.52,0,0,0,6.89,1.69V27.3l-.32-.11q-3-.68-5.18-1.43a13.77,13.77,0,0,1-3.75-1.85,7.19,7.19,0,0,1-2.3-2.67,8.63,8.63,0,0,1-.77-3.83A10.33,10.33,0,0,1,15,13a9.52,9.52,0,0,1,2.48-3.27,11.65,11.65,0,0,1,3.83-2.11,18.64,18.64,0,0,1,4.94-.92V1.38h2V6.66A17.85,17.85,0,0,1,34.43,7.9a17.59,17.59,0,0,1,5,3.09Zm-19.75,3a5.82,5.82,0,0,0,.5,2.56,4.92,4.92,0,0,0,1.53,1.8,9.71,9.71,0,0,0,2.64,1.32q1.61.55,3.83,1.08V10q-4.49.21-6.49,2.06A6.29,6.29,0,0,0,17.87,16.9ZM37.36,35a5.54,5.54,0,0,0-.61-2.69,5.89,5.89,0,0,0-1.8-2,12.22,12.22,0,0,0-3-1.48q-1.77-.63-4.09-1.21V41.45a12.76,12.76,0,0,0,7-1.61A5.42,5.42,0,0,0,37.36,35Z"/></svg>